<?xml version="1.0" encoding="utf-8"?>
<svg xmlns="http://www.w3.org/2000/svg"
    xmlns:xlink="http://www.w3.org/1999/xlink"
    width="520" height="520" viewBox="-10 -10 520 520">
<defs>
<style type="text/css"><![CDATA[
line {
    stroke: #000000;
    stroke-linecap: square;
    stroke-width: 5;
}
]]></style>
</defs>
<line x1="50.0" y1="0.0" x2="50.0" y2="50.0"/>
<line x1="0.0" y1="100.0" x2="50.0" y2="100.0"/>
<line x1="50.0" y1="150.0" x2="50.0" y2="200.0"/>
<line x1="0.0" y1="250.0" x2="50.0" y2="250.0"/>
<line x1="50.0" y1="250.0" x2="50.0" y2="300.0"/>
<line x1="50.0" y1="300.0" x2="50.0" y2="350.0"/>
<line x1="50.0" y1="400.0" x2="50.0" y2="450.0"/>
<line x1="0.0" y1="500.0" x2="50.0" y2="500.0"/>
<line x1="50.0" y1="50.0" x2="100.0" y2="50.0"/>
<line x1="100.0" y1="50.0" x2="100.0" y2="100.0"/>
<line x1="50.0" y1="150.0" x2="100.0" y2="150.0"/>
<line x1="100.0" y1="100.0" x2="100.0" y2="150.0"/>
<line x1="50.0" y1="250.0" x2="100.0" y2="250.0"/>
<line x1="100.0" y1="200.0" x2="100.0" y2="250.0"/>
<line x1="50.0" y1="350.0" x2="100.0" y2="350.0"/>
<line x1="100.0" y1="350.0" x2="100.0" y2="400.0"/>
<line x1="50.0" y1="450.0" x2="100.0" y2="450.0"/>
<line x1="50.0" y1="500.0" x2="100.0" y2="500.0"/>
<line x1="100.0" y1="150.0" x2="150.0" y2="150.0"/>
<line x1="150.0" y1="100.0" x2="150.0" y2="150.0"/>
<line x1="150.0" y1="150.0" x2="150.0" y2="200.0"/>
<line x1="150.0" y1="200.0" x2="150.0" y2="250.0"/>
<line x1="100.0" y1="300.0" x2="150.0" y2="300.0"/>
<line x1="150.0" y1="250.0" x2="150.0" y2="300.0"/>
<line x1="100.0" y1="350.0" x2="150.0" y2="350.0"/>
<line x1="150.0" y1="350.0" x2="150.0" y2="400.0"/>
<line x1="100.0" y1="450.0" x2="150.0" y2="450.0"/>
<line x1="150.0" y1="400.0" x2="150.0" y2="450.0"/>
<line x1="100.0" y1="500.0" x2="150.0" y2="500.0"/>
<line x1="150.0" y1="50.0" x2="200.0" y2="50.0"/>
<line x1="150.0" y1="100.0" x2="200.0" y2="100.0"/>
<line x1="200.0" y1="50.0" x2="200.0" y2="100.0"/>
<line x1="200.0" y1="150.0" x2="200.0" y2="200.0"/>
<line x1="150.0" y1="300.0" x2="200.0" y2="300.0"/>
<line x1="200.0" y1="250.0" x2="200.0" y2="300.0"/>
<line x1="200.0" y1="300.0" x2="200.0" y2="350.0"/>
<line x1="200.0" y1="350.0" x2="200.0" y2="400.0"/>
<line x1="200.0" y1="400.0" x2="200.0" y2="450.0"/>
<line x1="150.0" y1="500.0" x2="200.0" y2="500.0"/>
<line x1="200.0" y1="50.0" x2="250.0" y2="50.0"/>
<line x1="200.0" y1="150.0" x2="250.0" y2="150.0"/>
<line x1="250.0" y1="100.0" x2="250.0" y2="150.0"/>
<line x1="200.0" y1="250.0" x2="250.0" y2="250.0"/>
<line x1="250.0" y1="200.0" x2="250.0" y2="250.0"/>
<line x1="250.0" y1="300.0" x2="250.0" y2="350.0"/>
<line x1="200.0" y1="450.0" x2="250.0" y2="450.0"/>
<line x1="250.0" y1="400.0" x2="250.0" y2="450.0"/>
<line x1="200.0" y1="500.0" x2="250.0" y2="500.0"/>
<line x1="250.0" y1="100.0" x2="300.0" y2="100.0"/>
<line x1="300.0" y1="50.0" x2="300.0" y2="100.0"/>
<line x1="250.0" y1="150.0" x2="300.0" y2="150.0"/>
<line x1="300.0" y1="150.0" x2="300.0" y2="200.0"/>
<line x1="300.0" y1="200.0" x2="300.0" y2="250.0"/>
<line x1="250.0" y1="300.0" x2="300.0" y2="300.0"/>
<line x1="300.0" y1="250.0" x2="300.0" y2="300.0"/>
<line x1="250.0" y1="350.0" x2="300.0" y2="350.0"/>
<line x1="300.0" y1="350.0" x2="300.0" y2="400.0"/>
<line x1="300.0" y1="400.0" x2="300.0" y2="450.0"/>
<line x1="250.0" y1="500.0" x2="300.0" y2="500.0"/>
<line x1="300.0" y1="450.0" x2="300.0" y2="500.0"/>
<line x1="350.0" y1="0.0" x2="350.0" y2="50.0"/>
<line x1="300.0" y1="100.0" x2="350.0" y2="100.0"/>
<line x1="350.0" y1="100.0" x2="350.0" y2="150.0"/>
<line x1="300.0" y1="200.0" x2="350.0" y2="200.0"/>
<line x1="350.0" y1="300.0" x2="350.0" y2="350.0"/>
<line x1="300.0" y1="400.0" x2="350.0" y2="400.0"/>
<line x1="300.0" y1="500.0" x2="350.0" y2="500.0"/>
<line x1="350.0" y1="50.0" x2="400.0" y2="50.0"/>
<line x1="400.0" y1="50.0" x2="400.0" y2="100.0"/>
<line x1="350.0" y1="150.0" x2="400.0" y2="150.0"/>
<line x1="400.0" y1="150.0" x2="400.0" y2="200.0"/>
<line x1="350.0" y1="250.0" x2="400.0" y2="250.0"/>
<line x1="400.0" y1="200.0" x2="400.0" y2="250.0"/>
<line x1="400.0" y1="250.0" x2="400.0" y2="300.0"/>
<line x1="350.0" y1="350.0" x2="400.0" y2="350.0"/>
<line x1="400.0" y1="350.0" x2="400.0" y2="400.0"/>
<line x1="350.0" y1="450.0" x2="400.0" y2="450.0"/>
<line x1="400.0" y1="400.0" x2="400.0" y2="450.0"/>
<line x1="350.0" y1="500.0" x2="400.0" y2="500.0"/>
<line x1="400.0" y1="100.0" x2="450.0" y2="100.0"/>
<line x1="450.0" y1="50.0" x2="450.0" y2="100.0"/>
<line x1="450.0" y1="100.0" x2="450.0" y2="150.0"/>
<line x1="450.0" y1="150.0" x2="450.0" y2="200.0"/>
<line x1="450.0" y1="200.0" x2="450.0" y2="250.0"/>
<line x1="400.0" y1="300.0" x2="450.0" y2="300.0"/>
<line x1="400.0" y1="350.0" x2="450.0" y2="350.0"/>
<line x1="400.0" y1="400.0" x2="450.0" y2="400.0"/>
<line x1="400.0" y1="500.0" x2="450.0" y2="500.0"/>
<line x1="450.0" y1="450.0" x2="450.0" y2="500.0"/>
<line x1="500.0" y1="0.0" x2="500.0" y2="50.0"/>
<line x1="500.0" y1="50.0" x2="500.0" y2="100.0"/>
<line x1="500.0" y1="100.0" x2="500.0" y2="150.0"/>
<line x1="500.0" y1="150.0" x2="500.0" y2="200.0"/>
<line x1="500.0" y1="200.0" x2="500.0" y2="250.0"/>
<line x1="500.0" y1="250.0" x2="500.0" y2="300.0"/>
<line x1="450.0" y1="350.0" x2="500.0" y2="350.0"/>
<line x1="500.0" y1="300.0" x2="500.0" y2="350.0"/>
<line x1="500.0" y1="350.0" x2="500.0" y2="400.0"/>
<line x1="500.0" y1="400.0" x2="500.0" y2="450.0"/>
<line x1="500.0" y1="450.0" x2="500.0" y2="500.0"/>
<line x1="0.0" y1="0.0" x2="50.0" y2="0.0"/>
<line x1="50.0" y1="0.0" x2="100.0" y2="0.0"/>
<line x1="100.0" y1="0.0" x2="150.0" y2="0.0"/>
<line x1="150.0" y1="0.0" x2="200.0" y2="0.0"/>
<line x1="200.0" y1="0.0" x2="250.0" y2="0.0"/>
<line x1="250.0" y1="0.0" x2="300.0" y2="0.0"/>
<line x1="300.0" y1="0.0" x2="350.0" y2="0.0"/>
<line x1="350.0" y1="0.0" x2="400.0" y2="0.0"/>
<line x1="400.0" y1="0.0" x2="450.0" y2="0.0"/>
<line x1="450.0" y1="0.0" x2="500.0" y2="0.0"/>
<line x1="0.0" y1="50.0" x2="0.0" y2="100.0"/>
<line x1="0.0" y1="100.0" x2="0.0" y2="150.0"/>
<line x1="0.0" y1="150.0" x2="0.0" y2="200.0"/>
<line x1="0.0" y1="200.0" x2="0.0" y2="250.0"/>
<line x1="0.0" y1="250.0" x2="0.0" y2="300.0"/>
<line x1="0.0" y1="300.0" x2="0.0" y2="350.0"/>
<line x1="0.0" y1="350.0" x2="0.0" y2="400.0"/>
<line x1="0.0" y1="400.0" x2="0.0" y2="450.0"/>
<line x1="0.0" y1="450.0" x2="0.0" y2="500.0"/>
<rect x="5.0" y="5.0" width="40.0" height="40.0" style="fill:green" />
<rect x="455.0" y="455.0" width="40.0" height="40.0" style="fill:red" />
<rect x="305.0" y="405.0" width="40.0" height="40.0" style="fill:yellow" />
<rect x="355.0" y="255.0" width="40.0" height="40.0" style="fill:yellow" />
<rect x="105.0" y="55.0" width="40.0" height="40.0" style="fill:magenta" />
<rect x="305.0" y="205.0" width="40.0" height="40.0" style="fill:magenta" />
<rect x="205.0" y="5.0" width="40.0" height="40.0" style="fill:black" />
</svg>
